<svg id="Capa_1" fill="#d26a22" enable-background="new 0 0 512.022 512.022" height="512" viewBox="0 0 512.022 512.022" width="512" xmlns="http://www.w3.org/2000/svg"><g><path d="m472.948 264.19c-4.803-4.735-7.435-11.396-7.221-18.226 1.298-41.542-27.892-77.211-66.91-85.651.522-9.929.44-19.897-.283-29.874-.614-8.479-1.714-16.937-3.246-25.331 15.415-.302 30.754-6.914 42.538-18.699 12.673-12.674 19.471-29.607 18.648-46.459-.358-7.325-6.153-13.12-13.479-13.479-16.851-.831-33.784 5.974-46.458 18.647v.001c-5.4 5.399-9.716 11.546-12.838 18.103-4.844-12.887-10.783-25.387-17.756-37.295-2.094-3.574-6.689-4.777-10.262-2.682-3.575 2.093-4.775 6.688-2.683 10.262 17.525 29.929 28.098 63.821 30.574 98.015.652 8.997.75 17.987.321 26.944-37.559-1.43-70.423 22.235-82.71 55.642-7.998-6.897-16.982-11.696-26.842-14.298-17.008-4.504-35.459-1.95-53.365 7.378-13.714 7.146-28.544 11.279-43.553 12.426.888-7.073 2.051-14.118 3.51-21.117 5.22-25.041 14.02-49.165 26.156-71.699 1.964-3.647.6-8.196-3.047-10.16-3.647-1.965-8.195-.6-10.16 3.048-4.299 7.983-8.193 16.16-11.69 24.494-4.415-14.923-12.757-29.037-24.527-40.807-20.209-20.209-48.102-30.548-74.602-27.66-6.197.676-11.185 5.664-11.859 11.859-2.889 26.504 7.451 54.393 27.66 74.603 18.843 18.844 43.735 28.997 68.514 28.098-.392 1.717-.77 3.438-1.129 5.164-1.68 8.061-2.993 16.177-3.957 24.328-15.723-.907-31.297-5.097-45.647-12.577-17.914-9.326-36.37-11.878-53.37-7.378-25.687 6.788-45.519 28.515-55.842 61.177-9.944 31.461-9.91 69.629.098 107.471 4.501 17.022 10.805 33.175 18.735 48.009 1.975 3.694 6.557 4.999 10.15 3.078 3.653-1.953 5.031-6.498 3.078-10.15-7.383-13.81-13.258-28.872-17.462-44.771-9.29-35.131-9.396-70.33-.297-99.116 8.719-27.586 24.833-45.767 45.375-51.196 13.33-3.525 28.064-1.39 42.605 6.18 16.106 8.395 33.573 13.131 51.218 14.218-.741 11.563-.765 23.172-.067 34.77-5.268-.431-10.502-1.278-15.635-2.556-4.021-1.003-8.089 1.447-9.089 5.468-1 4.02 1.448 8.089 5.467 9.089 8.891 2.212 18.04 3.333 27.199 3.333h.17c9.099-.014 18.192-1.136 27.028-3.333 4.02-1 6.468-5.068 5.468-9.089-1-4.019-5.072-6.468-9.088-5.468-5.41 1.346-10.932 2.216-16.487 2.621-.74-11.606-.718-23.225.065-34.795 17.889-1 35.614-5.749 51.943-14.257 14.535-7.571 29.264-9.709 42.602-6.179 9.928 2.62 18.801 8.197 26.426 16.576-.716 4.87-1.026 10.032-.869 15.046.215 6.867-2.435 13.539-7.269 18.305-2.95 2.908-2.983 7.657-.075 10.606 2.908 2.948 7.656 2.982 10.606.075 7.799-7.689 12.075-18.426 11.729-29.501-1.251-40.008 31.89-73.003 71.616-71.984-1.299 11.244-3.449 22.41-6.451 33.445-7.264-.359-14.484-1.399-21.542-3.156-4.02-1.002-8.089 1.447-9.089 5.467s1.447 8.089 5.466 9.09c20.013 4.984 41.191 4.981 61.211 0 4.02-1 6.467-5.069 5.467-9.089s-5.072-6.467-9.089-5.468c-5.53 1.376-11.163 2.324-16.834 2.842 2.604-10.296 4.511-20.694 5.731-31.156 31.124 7.633 54.238 36.542 53.193 70.035-.345 11.041 3.913 21.766 11.681 29.425 22.315 22.002 34.605 51.372 34.605 82.699 0 31.322-12.283 60.686-34.586 82.682-22.301 21.992-51.831 33.89-83.2 33.43-6.814-.095-13.556-.805-20.18-2.08 24.189-17.448 39.966-45.865 39.966-77.902 0-52.935-43.065-96-96-96s-96 43.065-96 96c0 29.935 13.775 56.71 35.315 74.329-13.772 6.621-27.51 8.362-40.228 5-2.212-.585-4.405-1.329-6.514-2.209-17.025-7.117-36.553-7.116-53.571-.002-2.114.882-4.307 1.626-6.519 2.211-24.818 6.561-53.802-6.805-77.536-35.75-2.626-3.203-7.352-3.672-10.555-1.045-3.203 2.626-3.67 7.352-1.044 10.555 27.561 33.614 62.314 48.845 92.969 40.742 2.871-.76 5.718-1.725 8.466-2.871 13.347-5.58 28.656-5.58 42.009.002 2.743 1.145 5.589 2.109 8.462 2.869 19.893 5.261 39.081 1.171 58.033-9.99 13.834 7.739 29.766 12.159 46.713 12.159 13.198 0 25.783-2.678 37.24-7.519 13.101 4.317 26.765 6.512 40.646 6.512 34.695 0 67.326-13.368 92.061-37.762 25.184-24.837 39.054-57.993 39.054-93.361-.001-35.374-13.878-68.538-39.075-93.381zm-336.003-133.342c-2.929-2.928-7.678-2.928-10.606 0-2.929 2.93-2.929 7.678 0 10.607l33.749 33.749c-18.29-1.127-36.415-9.434-50.617-23.635-16.69-16.69-25.41-39.428-23.483-61.071 21.645-1.918 44.381 6.793 61.072 23.484 14.201 14.201 22.507 32.328 23.635 50.615zm255.886-40.732c-.412-12.277 4.725-24.801 14.312-34.39v.001c9.498-9.498 21.99-14.689 34.378-14.302.381 12.39-4.805 24.88-14.302 34.378-9.587 9.59-22.108 14.733-34.388 14.313zm-89.809 384.585c-44.664 0-81-36.337-81-81s36.336-81 81-81 81 36.337 81 81-36.336 81-81 81zm50.391-121.802c-8.893-8.092-22.659-7.633-31.338 1.045l-34.165 34.165-4.24-4.24c-8.634-8.722-23.162-8.66-31.821-.001-8.772 8.772-8.773 23.046 0 31.819l16.617 16.619c5.188 5.186 12.092 8.041 19.443 8.041 7.352 0 14.257-2.856 19.445-8.044l46.839-46.84c9.012-8.936 8.514-24.107-.78-32.564zm-9.825 21.957-46.839 46.84c-2.355 2.354-5.494 3.651-8.839 3.651s-6.484-1.296-8.837-3.648l-16.616-16.617c-2.924-2.925-2.924-7.683 0-10.606 2.888-2.888 7.733-2.901 10.607-.001l7.421 7.422c3.998 4.039 10.834 4.06 14.85.002l37.347-37.347c2.955-2.956 7.728-3.206 10.637-.559 3.12 2.839 3.276 7.891.269 10.863z"/></g></svg>