<svg version="1.1" fill="#d26a22" id="Capa_1" xmlns="http://www.w3.org/2000/svg" xmlns:xlink="http://www.w3.org/1999/xlink" x="0px" y="0px"
	 viewBox="0 0 512 512" style="enable-background:new 0 0 512 512;" xml:space="preserve">
<g>
	<g>
		<path d="M437.02,74.98C388.667,26.629,324.38,0,256,0S123.333,26.629,74.98,74.98C26.629,123.333,0,187.62,0,256
			s26.629,132.667,74.98,181.02C123.333,485.371,187.62,512,256,512s132.667-26.629,181.02-74.98
			C485.371,388.667,512,324.38,512,256S485.371,123.333,437.02,74.98z M426.413,426.413C380.894,471.932,320.374,497,256,497
			s-124.894-25.068-170.413-70.587C40.068,380.894,15,320.374,15,256S40.068,131.106,85.587,85.587
			C131.106,40.068,191.626,15,256,15s124.894,25.068,170.413,70.587C471.932,131.106,497,191.626,497,256
			S471.932,380.894,426.413,426.413z"/>
	</g>
</g>
<g>
	<g>
		<path d="M381.447,105.366c-37.407-31.223-84.934-47.28-133.793-45.207c-49.173,2.083-95.434,22.41-130.259,57.236
			C82.57,152.221,62.243,198.48,60.159,247.653c-2.07,48.871,13.984,96.386,45.206,133.792c1.483,1.777,3.615,2.694,5.762,2.694
			c1.695,0,3.399-0.571,4.802-1.742c3.18-2.654,3.606-7.384,0.952-10.563c-28.825-34.536-43.647-78.412-41.735-123.546
			c1.924-45.407,20.695-88.126,52.855-120.287c32.16-32.161,74.879-50.932,120.288-52.855c45.136-1.912,89.011,12.91,123.546,41.736
			c3.18,2.654,7.91,2.229,10.564-0.952C385.053,112.749,384.627,108.02,381.447,105.366z"/>
	</g>
</g>
<g>
	<g>
		<path d="M406.633,130.553c-2.654-3.18-7.384-3.606-10.564-0.952c-3.18,2.654-3.606,7.384-0.952,10.564
			c28.826,34.535,43.648,78.412,41.736,123.546c-1.923,45.408-20.695,88.127-52.855,120.288
			c-32.16,32.161-74.879,50.931-120.287,52.855c-45.136,1.915-89.011-12.909-123.545-41.734c-3.181-2.654-7.91-2.228-10.564,0.952
			s-2.228,7.909,0.952,10.563c35.26,29.431,79.5,45.384,125.394,45.384c2.793,0,5.595-0.059,8.399-0.178
			c49.173-2.083,95.433-22.41,130.258-57.235c34.826-34.826,55.152-81.086,57.235-130.259
			C453.911,215.474,437.856,167.959,406.633,130.553z"/>
	</g>
</g>
<g>
	<g>
		<path d="M412.782,244.637l-145.42-145.42c-3.035-3.035-7.07-4.707-11.363-4.707c-4.293,0-8.328,1.672-11.362,4.707l-145.42,145.42
			c-6.265,6.265-6.265,16.459,0,22.725l145.42,145.42c3.035,3.035,7.071,4.707,11.363,4.707s8.328-1.672,11.362-4.707l145.42-145.42
			C419.047,261.097,419.047,250.903,412.782,244.637z M109.824,256.756c-0.259-0.259-0.313-0.554-0.313-0.756
			c0-0.202,0.054-0.497,0.313-0.756l67.407-67.407l43.553,43.553c-15.537,0.292-30.197,7.764-39.364,20.148
			c-1.962,2.651-1.962,6.273,0,8.924c9.167,12.384,23.827,19.856,39.364,20.148l-43.553,43.553L109.824,256.756z M221.725,246.362
			c9.119,0,17.842,3.525,24.294,9.638c-6.451,6.113-15.175,9.638-24.294,9.638c-9.119,0-17.843-3.524-24.294-9.638
			C203.882,249.887,212.606,246.362,221.725,246.362z M256.756,402.176c-0.258,0.258-0.553,0.313-0.755,0.313
			c-0.202,0-0.497-0.055-0.755-0.313l-67.409-67.407L256,266.606l68.163,68.163L256.756,402.176z M265.981,256
			c6.451-6.113,15.175-9.638,24.294-9.638s17.843,3.524,24.294,9.638c-6.451,6.113-15.175,9.638-24.294,9.638
			S272.433,262.113,265.981,256z M402.176,256.756l-67.407,67.407l-43.553-43.553c15.537-0.292,30.197-7.764,39.364-20.148
			c1.962-2.651,1.962-6.273,0-8.924c-9.167-12.384-23.827-19.856-39.364-20.148l11.682-11.682c2.929-2.929,2.929-7.678,0-10.606
			c-2.929-2.929-7.678-2.929-10.606,0L256,245.394l-68.163-68.163l67.408-67.407c0.258-0.258,0.553-0.313,0.755-0.313
			s0.497,0.055,0.756,0.313l67.407,67.407l-9.466,9.466c-2.929,2.929-2.929,7.678,0,10.606c1.464,1.465,3.384,2.197,5.303,2.197
			s3.839-0.732,5.303-2.197l9.466-9.466l67.407,67.407c0.259,0.259,0.313,0.554,0.313,0.756
			C402.489,256.202,402.435,256.497,402.176,256.756z"/>
	</g>
</g>

</svg>