<svg fill="#d26a22" id="Capa_1" enable-background="new 0 0 512 512" height="512" viewBox="0 0 512 512" width="512" xmlns="http://www.w3.org/2000/svg"><g><path d="m384.5 38.113h-257c-70.304 0-127.5 57.196-127.5 127.5v45c0 4.142 3.358 7.5 7.5 7.5h111.197c-1.469 4.134-4.124 7.82-7.697 10.5l-30 22.5c-13.149 9.862-21 25.563-21 42v143.274c0 20.678 16.822 37.5 37.5 37.5h317c20.678 0 37.5-16.822 37.5-37.5v-143.274c0-16.437-7.851-32.138-21-42l-30-22.5c-3.572-2.68-6.228-6.366-7.697-10.5h111.197c4.142 0 7.5-3.358 7.5-7.5v-45c0-70.304-57.196-127.5-127.5-127.5zm-257 15h257c59.512 0 108.371 46.451 112.244 105h-104.744v-7.5c0-18.109-12.905-33.262-30-36.747v-23.253c0-12.407-10.093-22.5-22.5-22.5-9.778 0-18.114 6.271-21.21 15h-124.58c-3.096-8.729-11.432-15-21.21-15-12.407 0-22.5 10.093-22.5 22.5v23.253c-17.095 3.485-30 18.637-30 36.747v7.5h-104.744c3.873-58.549 52.732-105 112.244-105zm67.5 45h122v15h-122zm-180 75h105v30h-105zm407 90c9.393 7.044 15 18.259 15 30v68.274c0 12.407-10.093 22.5-22.5 22.5h-287c-4.142 0-7.5 3.358-7.5 7.5s3.358 7.5 7.5 7.5h287c8.436 0 16.228-2.801 22.5-7.52v45.02c0 12.407-10.093 22.5-22.5 22.5h-317c-12.407 0-22.5-10.093-22.5-22.5v-45.02c6.272 4.719 14.064 7.52 22.5 7.52 4.142 0 7.5-3.358 7.5-7.5s-3.358-7.5-7.5-7.5c-12.407 0-22.5-10.093-22.5-22.5v-68.274c0-11.74 5.607-22.956 15-30l30-22.5c9.393-7.045 15-18.26 15-30v-60c0-12.407 10.093-22.5 22.5-22.5 4.142 0 7.5-3.358 7.5-7.5v-30c0-4.136 3.364-7.5 7.5-7.5s7.5 3.364 7.5 7.5v30c0 4.142 3.358 7.5 7.5 7.5h137c4.142 0 7.5-3.358 7.5-7.5v-30c0-4.136 3.364-7.5 7.5-7.5s7.5 3.364 7.5 7.5v30c0 4.142 3.358 7.5 7.5 7.5 12.407 0 22.5 10.093 22.5 22.5v60c0 11.74 5.607 22.955 15 30zm-30-60v-30h105v30z"/><path d="m256 143.113c-62.033 0-112.5 50.467-112.5 112.5s50.467 112.5 112.5 112.5 112.5-50.467 112.5-112.5-50.467-112.5-112.5-112.5zm0 210c-53.762 0-97.5-43.738-97.5-97.5s43.738-97.5 97.5-97.5 97.5 43.738 97.5 97.5-43.738 97.5-97.5 97.5z"/><path d="m256 203.113c-28.949 0-52.5 23.551-52.5 52.5s23.551 52.5 52.5 52.5 52.5-23.551 52.5-52.5-23.551-52.5-52.5-52.5zm0 90c-20.678 0-37.5-16.822-37.5-37.5s16.822-37.5 37.5-37.5 37.5 16.822 37.5 37.5-16.822 37.5-37.5 37.5z"/><path d="m256 173.113c-45.491 0-82.5 37.009-82.5 82.5s37.009 82.5 82.5 82.5 82.5-37.009 82.5-82.5-37.009-82.5-82.5-82.5zm0 150c-37.22 0-67.5-30.28-67.5-67.5s30.28-67.5 67.5-67.5 67.5 30.28 67.5 67.5-30.28 67.5-67.5 67.5z"/></g></svg>